<svg width="51" height="41" viewBox="0 0 51 41" fill="none" xmlns="http://www.w3.org/2000/svg">
<path d="M38.8653 29.1349L38.4013 29.6011L38.6457 30.2118C40.2232 34.1532 43.8427 36.875 49.0875 36.875C49.5869 36.875 50 37.2831 50 37.7969V39.0781C50 39.5919 49.5869 40 49.0875 40C44.4844 40 41.0552 38.4525 38.4085 35.5676L37.3458 34.4093L36.747 35.8628C35.7456 38.2935 33.3633 40 30.6 40H20.4C17.6367 40 15.2544 38.2935 14.253 35.8628L13.6542 34.4093L12.5915 35.5676C9.94436 38.4529 6.51494 40 1.9125 40C1.41313 40 1 39.5919 1 39.0781V37.7969C1 37.2831 1.41313 36.875 1.9125 36.875C7.22594 36.875 10.8022 34.0895 12.3543 30.2118L12.5987 29.6011L12.1347 29.1349L6.55569 23.5285C5.73155 22.7002 6.07748 21.289 7.17705 20.9339L7.17706 20.9339L10.5074 19.8582L11.2 19.6345V18.9066V7.6875C11.2 6.81995 11.8986 6.125 12.75 6.125H17.85H18.85V5.125V1.92188C18.85 1.40811 19.2631 1 19.7625 1H31.2375C31.7369 1 32.15 1.40811 32.15 1.92188V5.125V6.125H33.15H38.25C39.1014 6.125 39.8 6.81995 39.8 7.6875V18.9066V19.6345L40.4926 19.8582L43.8229 20.9339L44.1303 19.9823L43.823 20.9339C44.9232 21.2893 45.2679 22.7008 44.4443 23.5285L38.8653 29.1349ZM15.3 9.25H14.3V10.25V17.2593V18.6332L15.6074 18.2109L25.0271 15.1683L25.0271 15.1683C25.3347 15.069 25.6653 15.069 25.9729 15.1683L25.9729 15.1683L35.3926 18.2109L36.7 18.6332V17.2593V10.25V9.25H35.7H15.3Z" stroke="#75C3FF" stroke-width="2"/>
</svg>
