<svg width="50" height="41" viewBox="0 0 50 41" fill="none" xmlns="http://www.w3.org/2000/svg">
<path d="M46.1043 28.1875V29.1875H47.1043H48.3439C48.4424 29.1875 48.5835 29.2849 48.5835 29.4688V32.0312C48.5835 32.2151 48.4424 32.3125 48.3439 32.3125H44.6251H43.6251V33.3125C43.6251 37.0358 40.7105 40 37.1876 40C33.6647 40 30.7501 37.0358 30.7501 33.3125V32.3125H29.7501H19.8335H18.8335V33.3125C18.8335 37.0358 15.9189 40 12.396 40C8.87302 40 5.95846 37.0358 5.95846 33.3125V32.3125H4.95846H3.71887C2.249 32.3125 1.00012 31.07 1.00012 29.4688V3.84375C1.00012 2.24254 2.249 1 3.71887 1H28.5105C29.9804 1 31.2293 2.24254 31.2293 3.84375V7.6875V8.6875H32.2293H35.6459C36.3509 8.6875 37.0391 8.98014 37.5536 9.51193L45.2932 17.5117C45.8086 18.0445 46.1043 18.7715 46.1043 19.5311V28.1875ZM44.8336 21.5H45.8336V20.5V19V18.6024L45.5606 18.3134L37.0606 9.31338L36.7647 9H36.3336H32.2293H31.2293V10V20.5V21.5H32.2293H44.8336ZM8.83362 33C8.83362 34.8544 10.2406 36.5 12.3336 36.5C14.4256 36.5 15.8336 34.8596 15.8336 33C15.8336 31.1404 14.4256 29.5 12.3336 29.5C10.2406 29.5 8.83362 31.1456 8.83362 33ZM33.8336 33C33.8336 33.9772 34.1637 34.8693 34.814 35.5196C35.4643 36.1699 36.3564 36.5 37.3336 36.5C38.3109 36.5 39.2029 36.1699 39.8532 35.5196C40.5035 34.8693 40.8336 33.9772 40.8336 33C40.8336 32.0228 40.5035 31.1307 39.8532 30.4804C39.2029 29.8301 38.3109 29.5 37.3336 29.5C36.3564 29.5 35.4643 29.8301 34.814 30.4804C34.1637 31.1307 33.8336 32.0228 33.8336 33Z" stroke="#75C3FF" stroke-width="2"/>
</svg>
