<svg width="71" height="70" viewBox="0 0 71 70" fill="none" xmlns="http://www.w3.org/2000/svg">
<path d="M12.4844 26.7143H13.1713L13.4178 26.0731L14.5467 23.136C14.5468 23.1358 14.5468 23.1357 14.5469 23.1356C15.0359 21.8655 16.2987 21 17.7352 21H29.2557C30.6923 21 31.9552 21.8657 32.4441 23.136L32.4449 23.1381L33.5832 26.0756L33.8307 26.7143H34.5156H42.5938C44.5004 26.7143 46 28.2122 46 30V55.7143C46 57.5021 44.5004 59 42.5938 59H4.40625C2.49959 59 1 57.5021 1 55.7143V30C1 28.2122 2.49959 26.7143 4.40625 26.7143H12.4844ZM35.5156 42.8571C35.5156 36.3682 30.1029 31.1429 23.5 31.1429C16.8971 31.1429 11.4844 36.3682 11.4844 42.8571C11.4844 49.3461 16.8971 54.5714 23.5 54.5714C30.1029 54.5714 35.5156 49.3461 35.5156 42.8571ZM30.5781 42.8571C30.5781 46.6093 27.4262 49.7143 23.5 49.7143C19.5738 49.7143 16.4219 46.6093 16.4219 42.8571C16.4219 39.105 19.5738 36 23.5 36C27.4262 36 30.5781 39.105 30.5781 42.8571Z" fill="white" stroke="white" stroke-width="2"/>
</svg>
