<svg width="68" height="70" viewBox="0 0 68 70" fill="none" xmlns="http://www.w3.org/2000/svg">
<path d="M27.5356 42.0981C28.5485 40.9257 29.6026 39.6495 30.6331 38.3197V53.6199L16.9665 49.1492V38.319C17.9972 39.6488 19.0515 40.9247 20.0636 42.0969L20.0638 42.0971C21.0004 43.1823 22.3636 43.8017 23.7998 43.8017C25.236 43.8017 26.5991 43.1823 27.5356 42.0981ZM27.5356 42.0981L26.7789 41.4444M27.5356 42.0981C27.5357 42.0981 27.5357 42.0981 27.5357 42.0981L26.7789 41.4444M26.7789 41.4444C28.0441 39.98 29.3716 38.3549 30.6331 36.6698L20.8207 41.4436C21.5657 42.3068 22.6517 42.8017 23.7998 42.8017C24.9479 42.8017 26.0339 42.3068 26.7789 41.4444ZM23.5693 39.1332L23.5693 39.1331C22.293 37.6555 19.9997 34.8928 18.031 31.9536C17.0462 30.4833 16.1566 28.9893 15.5164 27.6044C14.8669 26.1992 14.5186 24.9991 14.5186 24.0898C14.5186 19.0871 18.6559 15 23.7998 15C28.9437 15 33.0811 19.0871 33.0811 24.0898C33.0811 24.9991 32.7327 26.1992 32.0832 27.6044C31.443 28.9893 30.5534 30.4833 29.5686 31.9536C27.5999 34.8928 25.3066 37.6555 24.0303 39.1331L24.0298 39.1338C23.9084 39.2745 23.6922 39.2754 23.5693 39.1332ZM2.30693 32.2237L1.94355 31.298L2.30693 32.2237L11.0504 28.7916C11.415 29.6708 11.8549 30.5663 12.3554 31.4707V49.2265L1.70998 53.9817C1.48837 54.0579 1.2998 53.8871 1.2998 53.7171V33.6722C1.2998 33.6721 1.2998 33.6721 1.2998 33.672C1.29992 33.364 1.39393 33.0615 1.57206 32.8034C1.75041 32.5449 2.00562 32.342 2.30693 32.2237ZM45.2929 49.5887L45.2927 49.5888L35.2443 53.5332V32.586L45.8896 27.8309C46.1112 27.7546 46.2998 27.9254 46.2998 28.0954V48.1405C46.2998 48.4485 46.2058 48.751 46.0277 49.0092C45.8494 49.2676 45.5942 49.4705 45.2929 49.5887ZM19.3727 24.0898C19.3727 26.5176 21.3723 28.4531 23.7998 28.4531C26.2273 28.4531 28.2269 26.5176 28.2269 24.0898C28.2269 21.6621 26.2273 19.7266 23.7998 19.7266C21.3723 19.7266 19.3727 21.6621 19.3727 24.0898ZM31.6331 53.9471V37.0015V53.9471Z" fill="white" stroke="white" stroke-width="2"/>
</svg>
