<svg width="70" height="70" viewBox="0 0 70 70" fill="none" xmlns="http://www.w3.org/2000/svg">
<path d="M23.8333 35.0087H24.8333V34.0087V15.0982C24.8333 15.0402 24.8792 15 24.9271 15H39.8167C43.4648 15 46.4979 16.2356 48.6153 18.3252C50.7311 20.4134 52 23.4208 52 27.0936C52 30.7676 50.73 33.8212 48.6088 35.9534C46.4879 38.0853 43.4556 39.3571 39.8167 39.3571H31.3583H30.3583V40.3571V43.2857V44.2857H31.3583H46.0729C46.1208 44.2857 46.1667 44.3259 46.1667 44.3839V48.0446C46.1667 48.1027 46.1208 48.1429 46.0729 48.1429H31.3583H30.3583V49.1429V53.9018C30.3583 53.9598 30.3125 54 30.2646 54H24.9271C24.8792 54 24.8333 53.9598 24.8333 53.9018V49.1429V48.1429H23.8333H19.0938C19.0458 48.1429 19 48.1027 19 48.0446V44.3839C19 44.3259 19.0458 44.2857 19.0938 44.2857H23.8333H24.8333V43.2857V40.3571V39.3571H23.8333H19.0938C19.0458 39.3571 19 39.317 19 39.2589V35.1069C19 35.0489 19.0458 35.0087 19.0938 35.0087H23.8333ZM31.3583 19.2917H30.3583V20.2917V34.0087V35.0087H31.3583H38.4167C40.8149 35.0087 42.827 34.2583 44.2399 32.8264C45.6505 31.3969 46.3583 29.3952 46.3583 27.0936C46.3583 24.8164 45.6482 22.8433 44.2526 21.4366C42.8556 20.0285 40.8744 19.2917 38.5333 19.2917H31.3583Z" fill="white" stroke="white" stroke-width="2"/>
</svg>
