<?xml version="1.0" encoding="utf-8"?>
<!-- Generator: Adobe Illustrator 25.0.0, SVG Export Plug-In . SVG Version: 6.00 Build 0)  -->
<svg version="1.1" id="Слой_1" xmlns="http://www.w3.org/2000/svg" xmlns:xlink="http://www.w3.org/1999/xlink" x="0px" y="0px"
	 viewBox="0 0 70 70" style="enable-background:new 0 0 70 70;" xml:space="preserve">
<style type="text/css">
	.st0{fill-rule:evenodd;clip-rule:evenodd;fill:#FFFFFF;filter:url(#Adobe_OpacityMaskFilter);}
	.st1{mask:url(#path-1-inside-1_2_);fill:#FFFFFF;}
</style>
<defs>
	<filter id="Adobe_OpacityMaskFilter" filterUnits="userSpaceOnUse" x="12.1" y="10.7" width="44" height="49.7">
		<feColorMatrix  type="matrix" values="1 0 0 0 0  0 1 0 0 0  0 0 1 0 0  0 0 0 1 0"/>
	</filter>
</defs>
<mask maskUnits="userSpaceOnUse" x="12.1" y="10.7" width="44" height="49.7" id="path-1-inside-1_2_">
	<path class="st0" d="M51,29.7L51,29.7c2.1,3.1,3.2,6.6,3.2,10.2c0,10.4-9.1,18.7-20.3,18.6c-11-0.2-20-9-19.7-19.2
		c0.1-4.3,1.9-8.5,5-11.7c3.1-3.2,7.3-5.4,11.9-6.1v-3.1H28c-0.4,0-0.8-0.2-1.1-0.4s-0.5-0.6-0.5-1v-2.9c0-0.4,0.2-0.7,0.5-1
		s0.7-0.4,1.1-0.4h12.3c0.4,0,0.8,0.2,1.1,0.4c0.3,0.3,0.5,0.6,0.5,1V17c0,0.4-0.2,0.7-0.5,1c-0.3,0.3-0.7,0.4-1.1,0.4h-3.1v3.1
		c3.5,0.5,6.8,1.9,9.6,4l2.4-2.2c0.1-0.1,0.3-0.2,0.5-0.3c0.2-0.1,0.4-0.1,0.6-0.1c0.2,0,0.4,0,0.6,0.1c0.2,0.1,0.4,0.2,0.5,0.3
		l2.2,2c0.1,0.1,0.3,0.3,0.3,0.5c0.1,0.2,0.1,0.4,0.1,0.5c0,0.2,0,0.4-0.1,0.5c-0.1,0.2-0.2,0.3-0.3,0.5L51,29.7z M31.7,40.3
		c-0.8-0.8-2.1-1.2-3.8-1.2h-1.3l0.3-4.2h5.3V33h-6.8L24.8,41h2.7c1.3,0,2.3,0.2,2.8,0.7c0.5,0.5,0.8,1.2,0.8,2.1
		c0,0.8-0.3,1.5-0.8,2c-0.5,0.5-1.2,0.7-2.1,0.7c-0.7,0-1.4-0.1-2-0.4c-0.6-0.3-1.2-0.7-1.6-1.2L24,46.6c0.5,0.6,1.2,1,1.9,1.4
		c0.8,0.3,1.6,0.5,2.4,0.5c1,0,1.8-0.2,2.5-0.6c0.7-0.4,1.2-1,1.5-1.7c0.3-0.7,0.5-1.5,0.5-2.4C32.9,42.3,32.5,41.1,31.7,40.3z
		 M36.7,47.5c0.7,0.6,1.6,0.9,2.5,0.9c0.9,0,1.8-0.3,2.5-0.9c0.7-0.6,1.3-1.5,1.7-2.7c0.4-1.2,0.6-2.6,0.6-4.2c0-1.6-0.2-3-0.6-4.2
		c-0.4-1.2-1-2.1-1.7-2.7c-0.7-0.6-1.6-0.9-2.5-0.9c-0.9,0-1.8,0.3-2.5,0.9c-0.7,0.6-1.3,1.5-1.7,2.7c-0.4,1.2-0.6,2.6-0.6,4.2
		c0,1.6,0.2,3,0.6,4.2C35.4,46,36,46.9,36.7,47.5z M41.5,45c-0.6,1-1.3,1.5-2.3,1.5c-1,0-1.7-0.5-2.3-1.5c-0.6-1-0.9-2.4-0.9-4.3
		s0.3-3.3,0.9-4.3c0.6-1,1.4-1.5,2.3-1.5c1,0,1.7,0.5,2.3,1.5c0.6,1,0.9,2.4,0.9,4.3S42.1,44,41.5,45z"/>
</mask>
<path class="st1" d="M50.9,29.8l-1.4-1.4l-1.2,1.2l1,1.4L50.9,29.8z M51,29.7l-1.4-1.5l0,0l0,0L51,29.7z M54.1,39.9l-2,0v0H54.1z
	 M33.8,58.5l0,2h0L33.8,58.5z M14.1,39.3l-2-0.1l0,0L14.1,39.3z M19.1,27.6l-1.4-1.4l0,0L19.1,27.6z M31,21.5l0.3,2l1.7-0.2v-1.7H31
	z M31,18.5h2v-2h-2V18.5z M28,18.5l0,2h0V18.5z M26.9,18l-1.4,1.5l0,0L26.9,18z M26.4,17h-2v0L26.4,17z M26.4,14.2l-2,0v0H26.4z
	 M26.9,13.2l-1.4-1.5l0,0L26.9,13.2z M28,12.7v-2l0,0L28,12.7z M41.4,13.2L40,14.6l0,0L41.4,13.2z M37.2,18.5v-2h-2v2H37.2z
	 M37.2,21.5h-2v1.7l1.7,0.2L37.2,21.5z M46.8,25.5l-1.2,1.6l1.3,1l1.2-1.1L46.8,25.5z M49.2,23.3l1.4,1.5l0,0L49.2,23.3z M49.7,23
	l0.7,1.9l0,0L49.7,23z M51.3,23.3L50,24.8l0,0L51.3,23.3z M53.5,25.3l-1.4,1.5l0,0L53.5,25.3z M53.5,27.4l1.4,1.5l0,0L53.5,27.4z
	 M31.7,40.3l-1.4,1.4l0,0l0,0L31.7,40.3z M26.6,39.1l-2-0.2l-0.2,2.2h2.2V39.1z M26.9,34.9v-2h-1.9l-0.1,1.8L26.9,34.9z M32.2,34.9
	v2h2v-2H32.2z M32.2,33h2v-2h-2V33z M25.5,33v-2h-1.8l-0.1,1.8L25.5,33z M24.8,41l-2-0.2L22.7,43h2.2V41z M30.4,41.7l-1.3,1.5l0,0
	l0,0L30.4,41.7z M30.4,45.8l1.4,1.4l0,0L30.4,45.8z M26.3,46l-0.9,1.8l0,0l0,0L26.3,46z M24.8,44.8l1.5-1.3l-2-2.4L22.9,44
	L24.8,44.8z M24,46.6l-1.8-0.8l-0.5,1.2l0.9,1L24,46.6z M25.9,47.9l-0.8,1.8l0,0l0,0L25.9,47.9z M30.9,47.8l1,1.7l0,0l0,0L30.9,47.8
	z M32.4,46.1l-1.8-0.9l0,0L32.4,46.1z M36.7,47.5L35.4,49l0,0l0,0L36.7,47.5z M41.7,47.5L43,49l0,0L41.7,47.5z M43.5,36.5l1.9-0.7
	l0,0L43.5,36.5z M41.7,33.8l-1.3,1.5l0,0l0,0L41.7,33.8z M36.7,33.8l1.3,1.5l0,0L36.7,33.8z M35,36.5l-1.9-0.7l0,0L35,36.5z
	 M35,44.8l-1.9,0.7l0,0L35,44.8z M41.5,45l-1.7-1l0,0l0,0L41.5,45z M36.9,45l-1.7,1l0,0l0,0L36.9,45z M36.9,36.3l-1.7-1l0,0l0,0
	L36.9,36.3z M41.5,36.3l-1.7,1l0,0l0,0L41.5,36.3z M52.3,31.2L52.3,31.2l-2.7-2.9l-0.1,0.1L52.3,31.2z M56.1,39.9
	c0-4-1.2-7.9-3.6-11.3l-3.3,2.3c1.9,2.7,2.9,5.8,2.9,8.9L56.1,39.9z M33.8,60.5c12.2,0.2,22.3-9,22.3-20.6h-4
	c0,9.1-8.1,16.7-18.3,16.6L33.8,60.5z M12.1,39.3c-0.4,11.4,9.7,21,21.6,21.2l0.1-4c-10-0.1-18-8.2-17.7-17.1L12.1,39.3z M17.7,26.2
	c-3.4,3.6-5.4,8.2-5.6,13l4,0.1c0.1-3.8,1.7-7.5,4.5-10.4L17.7,26.2z M30.8,19.6c-5,0.7-9.7,3.1-13.1,6.7l2.9,2.8
	c2.8-2.9,6.6-4.8,10.7-5.5L30.8,19.6z M29,18.5v3.1h4v-3.1H29z M28,20.5H31v-4H28V20.5z M25.5,19.5c0.7,0.6,1.6,1,2.4,1l0-4
	c0.1,0,0.2,0,0.3,0.1L25.5,19.5z M24.4,17c0,1,0.4,1.8,1.1,2.5l2.7-2.9c0.1,0.1,0.2,0.3,0.2,0.4L24.4,17z M24.4,14.2V17h4v-2.9H24.4
	z M25.5,11.7c-0.7,0.6-1.1,1.5-1.1,2.5l4,0c0,0.2-0.1,0.4-0.2,0.4L25.5,11.7z M28,10.7c-0.9,0-1.8,0.3-2.4,1l2.7,2.9
	c-0.1,0.1-0.2,0.1-0.3,0.1L28,10.7z M40.3,10.7H28v4h12.3V10.7z M42.7,11.7c-0.7-0.6-1.6-1-2.4-1v4c-0.1,0-0.2,0-0.3-0.1L42.7,11.7z
	 M43.8,14.2c0-1-0.4-1.8-1.1-2.5L40,14.6c-0.1-0.1-0.2-0.3-0.2-0.5H43.8z M43.8,17v-2.9h-4V17H43.8z M42.7,19.5
	c0.7-0.6,1.1-1.5,1.1-2.5h-4c0-0.2,0.1-0.4,0.2-0.5L42.7,19.5z M40.3,20.5c0.9,0,1.8-0.3,2.4-1L40,16.6c0.1-0.1,0.2-0.1,0.3-0.1
	V20.5z M37.2,20.5h3.1v-4h-3.1V20.5z M39.2,21.5v-3.1h-4v3.1H39.2z M48,23.9c-3-2.3-6.7-3.8-10.5-4.4l-0.6,4
	c3.2,0.5,6.2,1.7,8.7,3.6L48,23.9z M47.8,21.9l-2.4,2.2l2.7,2.9l2.4-2.2L47.8,21.9z M48.9,21.1c-0.4,0.2-0.8,0.4-1.1,0.7l2.7,2.9
	c0,0-0.1,0.1-0.1,0.1L48.9,21.1z M50.2,20.9c-0.4,0-0.9,0.1-1.3,0.2l1.4,3.7c0,0-0.1,0-0.1,0V20.9z M51.5,21.1
	c-0.4-0.2-0.9-0.2-1.3-0.2v4c0,0-0.1,0-0.1,0L51.5,21.1z M52.7,21.9c-0.3-0.3-0.7-0.6-1.1-0.7l-1.4,3.7c0,0-0.1,0-0.1-0.1L52.7,21.9
	z M54.9,23.9l-2.2-2L50,24.8l2.2,2L54.9,23.9z M55.7,25c-0.2-0.4-0.5-0.8-0.8-1.1l-2.7,2.9c0,0-0.1-0.1-0.1-0.2L55.7,25z M56,26.4
	c0-0.5-0.1-0.9-0.3-1.4L52,26.6c0-0.1-0.1-0.2-0.1-0.3H56z M55.7,27.7c0.2-0.4,0.3-0.9,0.3-1.4h-4c0-0.1,0-0.2,0.1-0.3L55.7,27.7z
	 M54.9,28.8c0.3-0.3,0.6-0.7,0.8-1.1L52,26.1c0-0.1,0.1-0.1,0.1-0.2L54.9,28.8z M52.3,31.2l2.6-2.4l-2.7-2.9l-2.6,2.4L52.3,31.2z
	 M27.9,41.1c1.4,0,2.1,0.3,2.3,0.6l2.9-2.8c-1.3-1.4-3.2-1.8-5.2-1.8V41.1z M26.6,41.1h1.3v-4h-1.3V41.1z M24.9,34.8l-0.3,4.2l4,0.3
	l0.3-4.2L24.9,34.8z M32.2,32.9h-5.3v4h5.3V32.9z M30.2,33v1.9h4V33H30.2z M25.5,35h6.8v-4h-6.8V35z M26.8,41.1l0.6-7.9l-4-0.3
	l-0.6,7.9L26.8,41.1z M27.6,39h-2.7v4h2.7V39z M31.7,40.2c-1.1-1-2.7-1.2-4.1-1.2v4c0.6,0,0.9,0.1,1.2,0.1c0.3,0.1,0.3,0.1,0.3,0.1
	L31.7,40.2z M33.2,43.8c0-1.3-0.4-2.6-1.5-3.6l-2.6,3.1c0,0,0,0,0,0.1c0,0.1,0.1,0.2,0.1,0.5H33.2z M31.8,47.2
	c1-0.9,1.4-2.2,1.4-3.4h-4c0,0.4-0.1,0.5-0.2,0.6L31.8,47.2z M28.3,48.5c1.3,0,2.5-0.3,3.5-1.3L29,44.3c0,0-0.1,0.1-0.7,0.1V48.5z
	 M25.5,47.9c0.9,0.4,1.9,0.6,2.8,0.6v-4c-0.4,0-0.8-0.1-1.2-0.3L25.5,47.9z M23.2,46.1c0.6,0.7,1.4,1.3,2.2,1.7l1.7-3.6
	c-0.4-0.2-0.7-0.4-0.9-0.7L23.2,46.1z M25.8,47.4l0.8-1.7L22.9,44l-0.8,1.7L25.8,47.4z M26.7,46.1c-0.5-0.2-0.9-0.5-1.2-0.9l-3,2.7
	c0.7,0.8,1.6,1.4,2.7,1.9L26.7,46.1z M28.4,46.4c-0.6,0-1.1-0.1-1.7-0.3l-1.5,3.7c1,0.4,2.1,0.6,3.2,0.6V46.4z M29.8,46.1
	c-0.3,0.2-0.7,0.3-1.5,0.3v4c1.3,0,2.5-0.3,3.5-0.9L29.8,46.1z M30.6,45.3c-0.2,0.3-0.4,0.6-0.8,0.8l2.1,3.4c1-0.6,1.8-1.5,2.3-2.6
	L30.6,45.3z M30.9,43.7c0,0.6-0.1,1.2-0.3,1.6l3.6,1.7c0.5-1,0.7-2.1,0.7-3.3H30.9z M30.3,41.7c0.4,0.4,0.6,0.9,0.6,1.9h4
	c0-1.8-0.5-3.5-1.8-4.8L30.3,41.7z M39.2,46.4c-0.5,0-0.9-0.1-1.3-0.5L35.4,49c1.1,0.9,2.4,1.4,3.8,1.4V46.4z M40.4,46
	c-0.4,0.3-0.8,0.4-1.2,0.4v4c1.4,0,2.7-0.5,3.8-1.4L40.4,46z M41.6,44.1c-0.3,0.9-0.7,1.5-1.1,1.8L43,49c1.1-0.9,1.8-2.1,2.3-3.5
	L41.6,44.1z M42.1,40.6c0,1.4-0.2,2.6-0.5,3.5l3.8,1.4c0.5-1.4,0.8-3.1,0.8-4.8H42.1z M41.6,37.1c0.3,0.9,0.5,2.1,0.5,3.5h4
	c0-1.8-0.2-3.4-0.8-4.8L41.6,37.1z M40.4,35.3c0.4,0.3,0.8,0.9,1.1,1.8l3.8-1.4c-0.5-1.4-1.3-2.6-2.4-3.5L40.4,35.3z M39.2,34.9
	c0.4,0,0.8,0.1,1.2,0.5l2.6-3c-1.1-0.9-2.4-1.4-3.8-1.4V34.9z M38,35.3c0.4-0.3,0.8-0.5,1.2-0.5v-4c-1.4,0-2.7,0.5-3.8,1.4L38,35.3z
	 M36.8,37.1c0.3-0.9,0.7-1.5,1.1-1.8l-2.6-3.1c-1.1,0.9-1.8,2.1-2.3,3.5L36.8,37.1z M36.3,40.6c0-1.4,0.2-2.6,0.5-3.5l-3.8-1.4
	c-0.5,1.4-0.8,3.1-0.8,4.8H36.3z M36.8,44.1c-0.3-0.9-0.5-2.1-0.5-3.5h-4c0,1.8,0.2,3.4,0.8,4.8L36.8,44.1z M38,46
	c-0.4-0.3-0.8-0.9-1.1-1.8l-3.8,1.4c0.5,1.4,1.2,2.6,2.3,3.5L38,46z M39.2,48.5c1.8,0,3.2-1,4-2.5l-3.5-2c-0.2,0.3-0.3,0.4-0.4,0.4
	c0,0-0.1,0-0.2,0V48.5z M35.2,46c0.9,1.5,2.2,2.5,4.1,2.5v-4c-0.1,0-0.3,0-0.6-0.5L35.2,46z M34,40.6c0,2,0.3,3.9,1.1,5.3l3.5-2
	c-0.3-0.6-0.6-1.6-0.6-3.4H34z M35.1,35.3c-0.8,1.4-1.1,3.3-1.1,5.3h4c0-1.7,0.3-2.8,0.6-3.4L35.1,35.3z M39.2,32.8
	c-1.8,0-3.2,1-4.1,2.5l3.5,2c0.3-0.5,0.5-0.5,0.6-0.5V32.8z M43.2,35.3c-0.8-1.5-2.2-2.5-4-2.5v4c0.1,0,0.2,0,0.2,0
	c0.1,0,0.2,0.1,0.4,0.4L43.2,35.3z M44.4,40.6c0-2-0.3-3.9-1.1-5.3l-3.5,2c0.3,0.6,0.6,1.6,0.6,3.3H44.4z M43.2,46
	c0.8-1.4,1.1-3.3,1.1-5.3h-4c0,1.7-0.3,2.8-0.6,3.3L43.2,46z"/>
</svg>
