<svg width="53" height="46" viewBox="0 0 53 46" fill="none" xmlns="http://www.w3.org/2000/svg">
<path d="M41.0419 42.3827V43.8688C40.9316 43.8451 40.8035 43.8065 40.6489 43.7473C35.3626 41.2908 31.5118 35.5659 31.5118 26.3087C31.5118 26.0048 31.7047 25.6817 32.0794 25.5315L32.1119 25.5184L32.1439 25.5038L40.5627 21.6602C40.61 21.645 40.7002 21.6234 40.8404 21.6088C40.9042 21.6022 40.9717 21.5977 41.0419 21.5952V22.9958V42.3827ZM25.7949 27.1117C25.9921 34.0206 28.7207 39.6788 32.341 43.6283H4.09252C2.69199 43.6283 1.5 42.4574 1.5 40.9461V37.3216C1.5 31.6544 5.99159 27.1117 11.4591 27.1117H12.5578C14.5647 28.0006 16.7705 28.5058 19.0984 28.5058C21.4244 28.5058 23.638 28.0015 25.6402 27.1117H25.7949ZM28.5118 11.6713C28.5118 17.0336 24.2675 21.3237 19.0984 21.3237C13.9294 21.3237 9.68504 17.0336 9.68504 11.6713C9.68504 6.30908 13.9294 2.01904 19.0984 2.01904C24.2675 2.01904 28.5118 6.30908 28.5118 11.6713Z" stroke="#75C3FF" stroke-width="3"/>
</svg>
