<svg width="52" height="60" viewBox="0 0 52 60" fill="none" xmlns="http://www.w3.org/2000/svg">
<path d="M15.2362 12.8529H15.7362V12.3529V5.81019C15.7362 4.32589 16.1381 3.26055 16.8372 2.56468C17.5367 1.86843 18.608 1.46826 20.0994 1.46826H40.5871C41.2688 1.46827 41.7068 1.60059 42.0919 1.83075C42.5025 2.07619 42.8757 2.44353 43.4239 2.98973L49.5996 9.14242C50.1482 9.68901 50.5167 10.0598 50.7629 10.468C50.9934 10.8501 51.126 11.2847 51.126 11.9629V43.759C51.126 45.2433 50.7242 46.3087 50.025 47.0045C49.3255 47.7008 48.2542 48.1009 46.7628 48.1009H36.3898H35.8898V48.6009V55.1437C35.8898 56.6957 35.6724 57.7644 35.1657 58.4449C34.6866 59.0882 33.8672 59.4856 32.377 59.4856H4.86319C3.30442 59.4856 2.22948 59.2704 1.54476 58.7662C0.898746 58.2904 0.5 57.4769 0.5 55.9941V17.1948C0.5 15.7105 0.901833 14.6452 1.60098 13.9493C2.3005 13.2531 3.37178 12.8529 4.86319 12.8529H15.2362ZM15.7362 15.4941V14.9941H15.2362H3.8766C3.55518 14.9941 3.24654 15.1212 3.01869 15.3482C2.79078 15.5753 2.6624 15.8837 2.6624 16.2056V56.1329C2.6624 56.4548 2.79078 56.7632 3.01869 56.9902C3.24654 57.2172 3.55517 57.3444 3.8766 57.3444H32.5132C32.8346 57.3444 33.1432 57.2172 33.3711 56.9903C33.599 56.7632 33.7274 56.4548 33.7274 56.1329V48.6009V48.1009H33.2274H20.0994C18.608 48.1009 17.5367 47.7008 16.8372 47.0045C16.1381 46.3087 15.7362 45.2433 15.7362 43.759V15.4941ZM36.4823 4.1094V3.6094H35.9823H19.1128C18.7914 3.6094 18.4828 3.7366 18.2549 3.9636C18.027 4.19066 17.8986 4.49902 17.8986 4.82094V44.7483C17.8986 45.0702 18.027 45.3785 18.2549 45.6056C18.4828 45.8326 18.7914 45.9598 19.1128 45.9598H47.7494C48.0708 45.9598 48.3795 45.8326 48.6073 45.6056C48.8352 45.3785 48.9636 45.0702 48.9636 44.7483V16.5411V16.0411H48.4636H37.9887C37.204 16.0411 36.8943 15.9251 36.7463 15.778C36.5992 15.6319 36.4823 15.3261 36.4823 14.5453V4.1094ZM48.4636 13.9H48.9636V13.4V12.2578C48.9636 12.2577 48.9636 12.2577 48.9636 12.2577C48.9636 12.0984 48.9321 11.9406 48.871 11.7935C48.8098 11.6463 48.7202 11.5128 48.6074 11.4003L41.1493 3.9637L41.149 3.9634C40.9211 3.73659 40.6126 3.6094 40.2912 3.6094H39.1447H38.6447V4.1094V13.4V13.9H39.1447H48.4636Z" fill="#75C3FF" stroke="#75C3FF"/>
</svg>
